<?xml version="1.0" encoding="UTF-8" standalone="no"?>
<svg width="397px" height="596px" viewBox="0 0 397 596" version="1.1" xmlns="http://www.w3.org/2000/svg" xmlns:xlink="http://www.w3.org/1999/xlink" xmlns:sketch="http://www.bohemiancoding.com/sketch/ns">
    <!-- Generator: Sketch Beta 3.3.3 (12072) - http://www.bohemiancoding.com/sketch -->
    <title>Shape</title>
    <desc>Created with Sketch Beta.</desc>
    <defs></defs>
    <g id="Page-1" stroke="none" stroke-width="1" fill="none" fill-rule="evenodd" sketch:type="MSPage">
        <path d="M57,573 C36.9,564 24.6,555 13.8,544 C7.9,538 2.22464872,527.735521 1.84999996,526.184131 C1.34158198,524.078814 0.844720508,515.562 0.844720508,515.562 C0.844720508,515.562 0.74472051,509.456378 0.84472051,510.456378 C0.94472051,511.456378 1.05,509 1.85,506 C3.9,498 8.14,490 16.25,478 C26.85,462 35.95,451 58.25,428 C69.55,416 78.75,405 78.75,404 C78.75,403 75.05,400 68.25,395 C56.45,388 45.55,377 42.55,371 C35.35,357 39.15,339 53.65,317 C58.95,310 80.65,287 95.45,275 C102.05,269 107.05,264 107.05,263 C107.05,262 105.05,260 102.05,258 C85.15,250 65.15,232 55.15,217 C39.55,193 32.95,171 32.95,143 C32.95,121 36.55,104 44.95,86.1 C56.85,59.8 84.35,32 112.05,18.2 C137.05,7 166.05,0.4 189.05,0.2 C220.05,1.05 252.05,9.87 280.05,25.2 L285.05,28.5 L338.05,29 L391.05,29.5 L394.05,32.3 C395.05,33.8 396.05,36.3 396.05,37.8 L396.05,55.1 C396.05,56.5 395.05,58.8 394.05,60.1 C393.05,62.2 391.05,62.5 383.05,63.1 C377.05,63.5 361.05,63.8 346.05,63.9 C323.05,63.9 318.05,64.2 318.05,65.3 C318.05,66.1 319.05,69.2 321.05,72.1 C330.05,85.8 336.05,101 339.05,118 C341.05,131 341.05,158 339.05,169 C334.05,195 322.05,216 302.05,236 C279.05,258 253.05,270 217.05,275 C206.05,277 176.05,278 167.05,276 C154.05,275 147.05,274 137.05,271 L126.05,269 L121.05,274 C114.05,280 103.05,292 99.05,298 C95.25,305 92.25,315 92.25,321 C92.25,326 96.55,335 101.05,338 C113.05,346 125.05,348 175.05,350 C267.05,353 284.05,354 304.05,357 C338.05,361 364.05,376 379.05,399 C389.05,414 392.05,426 391.05,448 C391.05,460 390.05,464 388.05,471 C374.05,518 324.05,563 264.05,583 C242.05,590 212.05,596 193.05,596 L146.05,596 C112,593 82.6,585 57,573 Z M247,547 C281,544 308,535 326,522 C347,506 360,490 363,473 C365,464 364,451 361,444 C350,424 326,418 243,415 C189,413 148,411 119,407 C99,405 100,405 92,415 C75.3,434 64.4,453 60.1,468 C57.1,480 57.7,491 61.7,500 C73.3,524 118,543 172.7,548 C189.7,549 232.7,549 246.7,547 L247,547 Z M206,260 C216,258 224,255 231,250 C252,236 263,217 268,183 C270,173 270,138 268,126 C262,76.4 243,40.5 214,26 C195,16.1 168,15.8 150,25.3 C126,37.4 111,59.5 106,93 C101,122.5 104,165.5 113,193 C117,206 126,222 134,232 C152,255 178,265 206,260 L206,260 Z" id="Shape" fill="#000000" sketch:type="MSShapeGroup"></path>
    </g>
</svg>